<?xml version="1.0" encoding="UTF-8" standalone="no"?>
<!-- Created with Inkscape (http://www.inkscape.org/) -->

<svg
   width="89.481255mm"
   height="81.056122mm"
   viewBox="0 0 89.481255 81.056121"
   version="1.1"
   id="svg5"
   inkscape:version="1.1.1 (3bf5ae0d25, 2021-09-20)"
   sodipodi:docname="dibujo-2.svg"
   inkscape:export-filename="D:\Documents\Proyecto Capilar Mamá\Capilar-Web-Page\img\icono2.png"
   inkscape:export-xdpi="219.48199"
   inkscape:export-ydpi="219.48199"
   xmlns:inkscape="http://www.inkscape.org/namespaces/inkscape"
   xmlns:sodipodi="http://sodipodi.sourceforge.net/DTD/sodipodi-0.dtd"
   xmlns="http://www.w3.org/2000/svg"
   xmlns:svg="http://www.w3.org/2000/svg">
  <sodipodi:namedview
     id="namedview7"
     pagecolor="#ffffff"
     bordercolor="#666666"
     borderopacity="1.0"
     inkscape:pageshadow="2"
     inkscape:pageopacity="0.0"
     inkscape:pagecheckerboard="0"
     inkscape:document-units="mm"
     showgrid="false"
     fit-margin-top="0"
     fit-margin-left="0"
     fit-margin-right="0"
     fit-margin-bottom="0"
     inkscape:zoom="0.6405233"
     inkscape:cx="185.00498"
     inkscape:cy="294.29062"
     inkscape:window-width="1280"
     inkscape:window-height="961"
     inkscape:window-x="-8"
     inkscape:window-y="-8"
     inkscape:window-maximized="1"
     inkscape:current-layer="layer1"
     inkscape:snap-global="false" />
  <defs
     id="defs2">
    <marker
       style="overflow:visible"
       id="DotL"
       refX="0"
       refY="0"
       orient="auto"
       inkscape:stockid="DotL"
       inkscape:isstock="true">
      <path
         transform="matrix(0.8,0,0,0.8,5.92,0.8)"
         style="fill:context-stroke;fill-rule:evenodd;stroke:context-stroke;stroke-width:1pt"
         d="m -2.5,-1 c 0,2.76 -2.24,5 -5,5 -2.76,0 -5,-2.24 -5,-5 0,-2.76 2.24,-5 5,-5 2.76,0 5,2.24 5,5 z"
         id="path3984" />
    </marker>
  </defs>
  <g
     inkscape:label="Capa 1"
     inkscape:groupmode="layer"
     id="layer1"
     transform="translate(-67.145035,-86.684775)">
    <path
       style="fill:#616552;stroke-width:0.264583;stroke:none;stroke-opacity:1;fill-opacity:1"
       d="m 97.514469,167.41762 c -4.18773,-0.74597 -8.32211,-2.88261 -11.72245,-6.05815 -1.56134,-1.45812 -2.22539,-1.89398 -3.26122,-2.14054 -2.54989,-0.60694 -5.44905,-2.21731 -7.26985,-4.03811 -3.12465,-3.12464 -4.67896,-6.62844 -6.10283,-13.75725 l -0.80243,-4.01748 0.11738,-8.20208 c 0.10458,-7.3082 0.19141,-8.6209 0.79674,-12.04509 0.68577,-3.8792 1.83257,-7.907 3.00989,-10.57135 0.75725,-1.71369 0.95792,-1.46259 -2.78002,-3.47865 -1.35852,-0.73272 -2.41683,-1.38542 -2.3518,-1.45045 0.065,-0.065 1.51676,-0.87602 3.22606,-1.802187 l 3.10783,-1.68396 1.68396,-3.10783 c 0.92617,-1.7093 1.7346,-3.158462 1.79649,-3.220359 0.0619,-0.0619 0.62502,0.836281 1.25138,1.995949 l 1.13884,2.10849 1.33572,-1.13306 c 5.15538,-4.373207 12.19589,-6.75109 19.988841,-6.75109 15.64428,0 26.58447,9.00772 30.52406,25.132297 1.24055,5.07752 1.53218,7.8646 1.67495,16.00729 l 0.13453,7.67292 -0.82158,4.25504 c -1.30666,6.76727 -2.83171,10.46528 -5.50797,13.35595 -0.76876,0.83035 -1.39774,1.56277 -1.39774,1.62758 0,0.0648 0.59531,0.39668 1.32292,0.73747 0.7276,0.34079 1.32291,0.69299 1.32291,0.78268 0,0.0897 -1.41884,0.93253 -3.15299,1.873 l -3.153,1.70994 -1.77385,3.26116 -1.77385,3.26115 -1.43643,-2.59969 c -0.79004,-1.42984 -1.53777,-2.70106 -1.66162,-2.82493 -0.12388,-0.12392 -0.81424,0.24038 -1.53461,0.8098 -1.83585,1.45116 -5.14826,3.11862 -7.4813,3.76607 -2.30484,0.63963 -6.382181,0.89327 -8.446961,0.52547 z m 7.274131,-2.761 c 1.92026,-0.48518 6.00652,-2.46424 7.24646,-3.50961 l 0.90701,-0.76469 -2.46293,-1.33552 -2.46293,-1.33553 1.8205,-1.00181 c 4.95301,-2.72563 4.54561,-2.35944 6.40663,-5.75851 1.87781,-3.42973 1.9211,-3.44808 2.95056,-1.25014 0.34295,0.73223 0.70632,1.33132 0.80749,1.33132 0.61295,0 2.73227,-6.15861 3.61934,-10.51764 0.59997,-2.94822 0.66394,-13.53882 0.1076,-17.81423 l -0.3643,-2.79959 -1.34598,-0.90458 c -2.35301,-1.58136 -6.60685,-5.99837 -8.26064,-8.5775 -0.83981,-1.30969 -1.55504,-2.41929 -1.58941,-2.46578 -0.0344,-0.0465 -0.8182,0.47255 -1.74185,1.15342 -5.04393,3.71817 -12.452651,6.00019 -23.173941,7.13801 -2.00246,0.21252 -4.47427,0.39954 -5.49292,0.4156 -2.89877,0.0457 -3.11422,0.15917 -3.49337,1.83959 -1.21001,5.36297 -1.52049,16.21306 -0.61543,21.50708 2.17143,12.70153 9.35496,22.07806 18.88117,24.64527 1.84998,0.49855 6.292601,0.50115 8.256941,0.005 z m -7.815771,-10.15205 c -1.22777,-0.39474 -2.53182,-0.95671 -2.86272,-1.23368 -0.0465,-0.0389 0.16106,-0.55236 0.46132,-1.14092 l 0.54593,-1.07011 1.52305,0.71374 c 1.33104,0.62376 1.83993,0.71177 4.036591,0.69808 2.13964,-0.0133 2.74198,-0.12035 4.04924,-0.71939 l 1.53569,-0.70372 0.47894,1.11626 c 0.47378,1.10425 0.47292,1.11977 -0.0805,1.44243 -2.3415,1.36517 -6.914771,1.78877 -9.687551,0.89731 z m 1.90285,-9.82889 c -0.96874,-0.59062 -1.88645,-2.3132 -1.8995,-3.56542 -0.005,-0.43656 0.31256,-2.49039 0.70469,-4.56406 0.76768,-4.05963 0.6968,-3.95237 2.388311,-3.61407 l 0.78124,0.15625 -0.75034,3.99415 c -0.412681,2.19678 -0.682021,4.20936 -0.598541,4.47239 0.29241,0.92131 0.917491,1.27513 2.252691,1.27513 h 1.30402 v 1.19063 1.19062 l -1.65365,-0.001 c -1.19125,-7.9e-4 -1.898391,-0.1502 -2.528921,-0.53463 z m -12.63286,-10.42334 c -1.18286,-0.39096 -3.2929,-1.41951 -3.2929,-1.60515 0,-0.30088 0.91261,-1.98797 1.07536,-1.98797 0.10099,0 0.8826,0.32406 1.73694,0.72015 2.14797,0.99584 4.18726,0.99788 6.2099,0.006 0.81487,-0.39951 1.54725,-0.72638 1.62751,-0.72638 0.0803,0 0.40271,0.4352 0.71654,0.96711 0.65332,1.1073 0.67875,1.07264 -1.57143,2.14233 -1.72822,0.82156 -4.79041,1.04936 -6.50192,0.48368 z m 23.562311,0.0214 c -0.99945,-0.33104 -2.18905,-0.90763 -3.01478,-1.46122 -0.30578,-0.20501 -0.2664,-0.41327 0.23002,-1.2165 0.32943,-0.53303 0.73358,-0.90905 0.89811,-0.83561 2.91652,1.3018 3.77194,1.54045 5.00019,1.39498 0.71111,-0.0842 1.95296,-0.4553 2.75968,-0.82463 0.80672,-0.36933 1.54939,-0.6715 1.65037,-0.6715 0.10098,0 0.39391,0.44101 0.65095,0.98003 0.44694,0.93723 0.44688,0.99501 -0.001,1.32274 -1.7637,1.28965 -6.12614,1.98977 -8.17323,1.31171 z m -16.404171,-8.625 c -1.36004,-0.57657 -1.98555,-0.67336 -4.36563,-0.67553 -2.28098,-0.002 -3.09707,0.11254 -4.56049,0.64046 -0.9803,0.35364 -1.83969,0.58564 -1.90977,0.51557 -0.0701,-0.0701 -0.31059,-0.56584 -0.53449,-1.10172 l -0.4071,-0.97431 0.96723,-0.40413 c 3.59646,-1.5027 7.71359,-1.72467 10.91688,-0.58858 2.53846,0.90031 2.63417,1.00839 1.99627,2.25445 l -0.5154,1.00679 z m 12.350641,-0.43126 -0.54481,-1.12139 1.33801,-0.57559 c 3.80834,-1.63831 8.09032,-1.59628 12.19725,0.11971 l 0.94599,0.39525 -0.426,1.08448 c -0.4756,1.21076 -0.25293,1.19435 -3.3715,0.24844 -2.50516,-0.75986 -5.6647,-0.63845 -7.97206,0.30632 l -1.62207,0.66417 z m 13.49931,35.24218 c 0.53742,-0.90535 1.0889,-1.39303 2.22474,-1.96738 l 1.51019,-0.76364 -1.62332,-0.89243 c -1.37915,-0.75819 -1.74824,-1.1268 -2.45386,-2.45067 l -0.83054,-1.55825 -0.91876,1.63033 c -0.77571,1.37647 -1.14171,1.73966 -2.35056,2.33254 -0.78749,0.38622 -1.4318,0.77089 -1.4318,0.85482 0,0.0839 0.66122,0.50561 1.46937,0.93707 1.21922,0.65091 1.61073,1.0479 2.29967,2.33179 0.91536,1.70586 0.80905,1.7288 2.10487,-0.45418 z m -39.076381,-6.05409 c -1.21512,-2.10636 -2.11787,-4.04663 -3.0468,-6.54844 l -0.73681,-1.98437 -1.17795,-0.17071 c -0.64787,-0.0939 -1.5641,-0.37041 -2.03608,-0.61448 -0.85727,-0.44331 -0.85794,-0.44314 -0.67321,0.17072 1.01659,3.37816 2.69001,6.40049 4.54263,8.20434 1.15537,1.12495 3.33387,2.58543 3.86841,2.5934 0.11757,0.002 -0.21552,-0.74095 -0.74019,-1.65046 z m 44.302881,-1.19062 c 1.63145,-1.68951 2.89972,-3.89107 3.84843,-6.68036 l 0.62893,-1.84916 -0.8179,0.42295 c -0.44984,0.23262 -1.36482,0.50118 -2.03328,0.5968 l -1.21538,0.17386 -0.60535,1.71665 c -0.33293,0.94416 -1.09801,2.76009 -1.70016,4.03539 -1.06287,2.25106 -1.07997,2.32997 -0.5862,2.70357 0.27975,0.21165 0.62185,0.38861 0.76023,0.39324 0.13838,0.005 0.91268,-0.6762 1.72068,-1.51294 z M 75.392299,141.69306 c -0.49104,-2.34251 -0.90905,-6.69919 -0.90905,-9.47438 0,-1.29427 -0.0893,-2.35277 -0.19844,-2.35222 -0.67967,0.003 -1.99715,1.22607 -2.62581,2.43687 -0.62332,1.2005 -0.72688,1.71713 -0.73117,3.64755 -0.004,1.90324 0.10356,2.47267 0.70116,3.70417 0.8729,1.79883 1.14434,2.13457 2.43248,3.00873 1.59143,1.07997 1.73824,0.97289 1.33083,-0.97072 z m 51.465031,1.27622 c 3.12077,-1.61381 4.56715,-6.98475 2.83462,-10.52592 -0.6573,-1.34347 -1.965,-2.58192 -2.72014,-2.57609 -0.12834,0.001 -0.25846,1.65889 -0.28915,3.68422 -0.0481,3.17151 -0.56036,7.83012 -1.02764,9.34471 -0.17446,0.56549 0.20545,0.58858 1.20231,0.0731 z m -53.163551,-15.5176 0.98644,-0.29555 0.18085,-2.22897 c 0.17977,-2.21556 0.8305,-6.67815 1.10286,-7.56326 0.12752,-0.41442 -0.081,-0.46302 -1.98698,-0.46302 -1.99301,0 -2.13787,0.0382 -2.26081,0.59532 -0.30946,1.40239 -0.66036,4.81085 -0.83282,8.08937 l -0.18544,3.52531 1.00473,-0.68183 c 0.5526,-0.37501 1.44863,-0.81482 1.99117,-0.97737 z m 56.688491,-2.18084 -0.20423,-2.34567 -1.45521,-0.45152 c -0.80036,-0.24834 -1.74047,-0.60526 -2.08912,-0.79316 -0.6274,-0.33812 -0.63232,-0.33111 -0.47808,0.68053 0.0857,0.56218 0.23609,1.87069 0.33417,2.90779 l 0.17832,1.88562 0.96121,0.28973 c 0.52867,0.15935 1.37793,0.57759 1.88725,0.92942 l 0.92605,0.6397 0.0719,-0.69838 c 0.0396,-0.38412 -0.02,-1.75394 -0.13229,-3.04406 z m -0.77725,-7.24548 c -2.06331,-13.00022 -8.6076,-22.225277 -18.23897,-25.710313 -5.62324,-2.034725 -12.574851,-2.326929 -18.891131,-0.794071 -3.00687,0.729717 -7.62333,3.005657 -9.85573,4.858927 -0.98227,0.81544 -1.78594,1.59107 -1.78594,1.72362 0,0.13255 1.36922,0.97137 3.04271,1.86403 1.67349,0.892667 3.04271,1.665417 3.04271,1.717227 0,0.0518 -1.42287,0.88314 -3.16192,1.84739 l -3.16193,1.7532 -1.7532,3.16193 c -0.96425,1.73905 -1.79282,3.16192 -1.84124,3.16192 -0.0484,0 -0.57814,-0.89297 -1.17714,-1.98438 -0.599,-1.0914 -1.13698,-1.98437 -1.19553,-1.98437 -0.16727,0 -1.16511,2.78114 -1.73266,4.82919 l -0.51581,1.86137 6.54211,-0.1571 c 16.76939,-0.4027 28.253191,-3.78339 32.654691,-9.61313 0.58893,-0.78004 1.14803,-1.41825 1.24244,-1.41825 0.0944,0 0.50765,0.88005 0.91832,1.95566 1.66995,4.37392 5.86889,9.32497 10.53063,12.41686 1.89467,1.25665 4.87115,2.76776 5.54324,2.81421 0.089,0.006 -0.004,-1.03061 -0.20565,-2.30392 z M 78.061079,104.68191 c 0.51594,-0.9891 0.96838,-1.41051 2.24482,-2.09084 l 1.59864,-0.85207 -1.52783,-0.84486 c -1.21223,-0.67035 -1.71653,-1.162237 -2.44133,-2.381257 -0.78922,-1.32738 -0.95119,-1.47318 -1.19062,-1.07177 -1.4399,2.41403 -1.79123,2.811947 -3.04251,3.446017 -0.73462,0.37226 -1.33567,0.73334 -1.33567,0.80241 0,0.0691 0.65722,0.49648 1.46048,0.94981 1.16735,0.65882 1.63148,1.13295 2.31254,2.36239 0.92082,1.66224 0.88443,1.6683 1.92148,-0.31983 z m 54.804221,-5.319157 -1.2815,-2.44919 -2.37501,-1.27674 c -1.30625,-0.70221 -2.29966,-1.35452 -2.20759,-1.44957 0.0921,-0.0951 1.1422,-0.71083 2.33359,-1.368403 2.14837,-1.185751 2.17739,-1.215875 3.53152,-3.664827 l 1.36535,-2.469248 1.33988,2.474202 1.33988,2.474202 2.40864,1.283544 c 2.73786,1.45899 2.77722,1.22224 -0.49393,2.97099 -1.89717,1.01422 -1.96129,1.08275 -3.2592,3.48325 -0.72818,1.346767 -1.3456,2.446937 -1.37205,2.444817 -0.0265,-0.002 -0.62476,-1.10598 -1.32958,-2.453027 z m 2.33983,-4.21796 c 0.14552,-0.1223 0.50151,-0.38644 0.7911,-0.58696 0.51598,-0.35729 0.51327,-0.37063 -0.13533,-0.66615 -0.36401,-0.16586 -0.88002,-0.6817 -1.14667,-1.146317 l -0.48483,-0.844759 -0.37874,0.722856 c -0.20831,0.39757 -0.74722,0.9134 -1.19757,1.14629 l -0.81884,0.42344 0.83094,0.50532 c 0.45701,0.27793 0.97315,0.81745 1.14697,1.19894 l 0.31603,0.69362 0.40618,-0.61195 c 0.22339,-0.33658 0.52524,-0.71202 0.67076,-0.83433 z"
       id="path980"
       sodipodi:nodetypes="ssssscsssssscssscsssscsssssscccssssscscccsssssscssscsscssccssscscscssssscsscsssccccsscssscssscccssssssscccscssscssscsccsscsssccsscsscsssssssscsssscssscsscssscssscscsssssscsssscssssscssccsssscsscccccssssssscssssscsssssccsscssssssssscsssscccssscssssscsscsscss" />
    <path
       style="fill:none;stroke:#616552;stroke-width:2.665;stroke-linecap:round;stroke-linejoin:round;stroke-miterlimit:4;stroke-dasharray:none;stroke-dashoffset:5.0635;stroke-opacity:1;fill-opacity:1"
       d="m 140.11801,107.5166 c -6.79678,16.11211 -4.6129,33.17616 8.52859,45.96228"
       id="path1490"
       sodipodi:nodetypes="cc" />
    <path
       style="fill:none;stroke:#616552;stroke-width:2.665;stroke-linecap:round;stroke-linejoin:miter;stroke-miterlimit:4;stroke-dasharray:none;stroke-dashoffset:0;stroke-opacity:1;fill-opacity:1"
       d="m 145.69121,113.79752 c -4.69864,11.12989 -3.20151,22.91205 5.85837,31.73392"
       id="path1490-1"
       sodipodi:nodetypes="cc" />
    <path
       style="fill:none;stroke:#616552;stroke-width:2.665;stroke-linecap:round;stroke-linejoin:miter;stroke-miterlimit:4;stroke-dasharray:none;stroke-dashoffset:0;stroke-opacity:1;fill-opacity:1"
       d="m 151.77888,116.31418 c -3.82325,8.77348 -3.0258,17.8835 3.51491,24.4867"
       id="path1490-1-2"
       sodipodi:nodetypes="cc" />
  </g>
</svg>
