<?xml version="1.0" encoding="UTF-8" standalone="no"?>
<!-- Created with Inkscape (http://www.inkscape.org/) -->

<svg
   width="135.20207mm"
   height="122.5546mm"
   viewBox="0 0 135.20207 122.5546"
   version="1.1"
   id="svg5"
   inkscape:version="1.1.1 (3bf5ae0d25, 2021-09-20)"
   sodipodi:docname="dibujo-4.svg"
   inkscape:export-filename="D:\Documents\Proyecto Capilar Mamá\Capilar-Web-Page\img\icono4.png"
   inkscape:export-xdpi="219.48199"
   inkscape:export-ydpi="219.48199"
   xmlns:inkscape="http://www.inkscape.org/namespaces/inkscape"
   xmlns:sodipodi="http://sodipodi.sourceforge.net/DTD/sodipodi-0.dtd"
   xmlns="http://www.w3.org/2000/svg"
   xmlns:svg="http://www.w3.org/2000/svg">
  <sodipodi:namedview
     id="namedview7"
     pagecolor="#ffffff"
     bordercolor="#666666"
     borderopacity="1.0"
     inkscape:pageshadow="2"
     inkscape:pageopacity="0.0"
     inkscape:pagecheckerboard="0"
     inkscape:document-units="mm"
     showgrid="false"
     inkscape:zoom="0.90583672"
     inkscape:cx="297.51499"
     inkscape:cy="125.29852"
     inkscape:window-width="1280"
     inkscape:window-height="961"
     inkscape:window-x="-8"
     inkscape:window-y="-8"
     inkscape:window-maximized="1"
     inkscape:current-layer="layer1"
     fit-margin-top="0"
     fit-margin-left="0"
     fit-margin-right="0"
     fit-margin-bottom="0"
     showguides="false" />
  <defs
     id="defs2" />
  <g
     inkscape:label="Capa 1"
     inkscape:groupmode="layer"
     id="layer1"
     transform="translate(-42.076113,-75.063284)">
    <path
       style="fill:#616552;fill-opacity:1;stroke-width:0.264583"
       d="M 63.570844,197.28194 C 53.135071,195.38 44.984421,187.5837 42.568274,177.19245 c -0.467955,-2.01256 -0.492161,-4.02313 -0.492161,-40.87812 0,-36.90953 0.0236,-38.86259 0.494,-40.87813 2.332332,-9.993448 9.915336,-17.578093 19.878915,-19.883215 2.015885,-0.466385 4.270888,-0.489701 47.360412,-0.489701 h 45.24375 l 2.36536,0.602286 c 9.31457,2.371752 16.58609,9.501827 19.14605,18.77364 l 0.71359,2.58449 v 39.15834 39.15833 l -0.59188,2.32154 c -1.57464,6.17622 -5.20663,11.54763 -10.23383,15.13496 -2.24221,1.60002 -6.13625,3.41981 -8.89727,4.15795 l -2.23744,0.59817 -44.84687,0.0516 c -37.675481,0.0433 -45.175193,-0.008 -46.900056,-0.32262 z m 92.409376,-8.33359 c 3.22399,-0.89341 5.40723,-2.19064 7.9629,-4.73136 1.83519,-1.82446 2.48725,-2.69709 3.3708,-4.511 2.0145,-4.13572 1.89448,-1.83563 1.89448,-36.3035 V 112.50183 H 109.67715 50.145904 v 30.90066 c 0,34.46787 -0.120028,32.16778 1.894472,36.3035 0.884405,1.81567 1.53384,2.68425 3.370807,4.50826 2.525291,2.50749 4.513726,3.71131 7.699304,4.66124 l 1.984375,0.59174 44.455308,0.0142 c 44.15344,0.0141 44.46873,0.0104 46.43005,-0.53305 z M 97.702239,173.78021 c -1.33718,-0.48877 -1.77937,-0.89242 -2.348708,-2.14401 -0.452004,-0.99366 -0.481425,-2.28717 -0.481425,-21.16666 0,-19.26372 0.02132,-20.15534 0.507973,-21.22735 0.85845,-1.89109 3.13643,-2.86559 4.988921,-2.13421 1.56608,0.61829 29.474,20.19067 30.14408,21.14064 0.43299,0.61384 0.59532,1.21941 0.59532,2.22092 0,0.99045 -0.1671,1.6243 -0.59532,2.25818 -0.50833,0.75247 -14.26078,10.4861 -27.45052,19.42876 -2.74436,1.86068 -3.820341,2.18662 -5.360321,1.62373 z M 70.42199,93.71641 c 2.665484,-5.60255 4.849259,-10.275756 4.852834,-10.384897 0.0036,-0.109141 -2.228318,-0.198437 -4.95976,-0.198437 -5.657108,0 -7.469743,0.34588 -10.77213,2.0555 -2.820135,1.459964 -6.086672,4.827304 -7.502558,7.734084 -1.483786,3.04617 -1.894472,4.83715 -1.894472,8.26167 v 2.85882 l 7.714874,-0.0701 7.714874,-0.0701 z m 35.00632,0.59531 c 2.52889,-5.34789 4.76116,-10.051903 4.96058,-10.453363 L 110.75147,83.12843 96.708309,83.1969 82.665152,83.26537 77.782611,93.5491 c -2.685397,5.65605 -4.882542,10.32925 -4.882542,10.38489 0,0.0556 6.284307,0.10117 13.965124,0.10117 h 13.965117 z m 34.81031,-0.69981 c 2.69098,-5.66002 4.89269,-10.333226 4.89269,-10.384894 0,-0.05167 -6.11263,-0.09394 -13.58362,-0.09394 H 117.96406 L 113.093,93.35656 c -2.67908,5.62292 -4.91111,10.32696 -4.96005,10.45344 -0.0499,0.12893 5.90803,0.19984 13.56199,0.16141 l 13.65099,-0.0685 z m 28.96978,7.56842 c 0,-3.42021 -0.4112,-5.21254 -1.89448,-8.25767 -1.54971,-3.18154 -4.71154,-6.34387 -7.89511,-7.896391 -1.23692,-0.603207 -2.996,-1.283571 -3.90905,-1.511919 -3.07607,-0.7693 -2.43551,-1.573995 -7.9105,9.93748 -2.66463,5.60255 -4.84578,10.27575 -4.84699,10.38489 -0.001,0.10914 5.95092,0.19844 13.22696,0.19844 h 13.22917 z"
       id="path3261" />
  </g>
</svg>
