<?xml version="1.0" encoding="UTF-8" standalone="no"?>
<!-- Created with Inkscape (http://www.inkscape.org/) -->

<svg
   version="1.1"
   id="svg4233"
   width="1298.7777"
   height="995.45874"
   viewBox="0 0 1298.7777 995.45874"
   sodipodi:docname="dibujo-3.svg"
   inkscape:version="1.1.1 (3bf5ae0d25, 2021-09-20)"
   xmlns:inkscape="http://www.inkscape.org/namespaces/inkscape"
   xmlns:sodipodi="http://sodipodi.sourceforge.net/DTD/sodipodi-0.dtd"
   xmlns="http://www.w3.org/2000/svg"
   xmlns:svg="http://www.w3.org/2000/svg">
  <defs
     id="defs4237" />
  <sodipodi:namedview
     id="namedview4235"
     pagecolor="#ffffff"
     bordercolor="#666666"
     borderopacity="1.0"
     inkscape:pageshadow="2"
     inkscape:pageopacity="0.0"
     inkscape:pagecheckerboard="0"
     showgrid="false"
     inkscape:zoom="0.27647094"
     inkscape:cx="59.680775"
     inkscape:cy="956.70091"
     inkscape:window-width="1280"
     inkscape:window-height="961"
     inkscape:window-x="-8"
     inkscape:window-y="-8"
     inkscape:window-maximized="1"
     inkscape:current-layer="g4239"
     fit-margin-top="0"
     fit-margin-left="0"
     fit-margin-right="0"
     fit-margin-bottom="0" />
  <g
     inkscape:groupmode="layer"
     inkscape:label="Image"
     id="g4239"
     transform="translate(-90.439995,-331.52009)">
    <path
       style="fill:#3b3d32;stroke-width:1;fill-opacity:1;stroke:none"
       d="M 454.86988,1324.1656 C 248.41423,1313.0015 122.15213,1276.9105 96.449543,1221.7139 l -5.974506,-12.8303 -0.02481,-204.0606 C 90.42289,779.97108 89.74954,789.77157 106.0537,777.71737 l 7.22886,-5.34453 v -41.76229 c 0,-37.93659 0.48652,-42.54951 5.31091,-50.35556 9.75373,-15.78186 54.79693,-33.23459 109.34602,-42.36795 l 18.02822,-3.01854 0.53087,-44.421 c 0.58489,-48.94083 5.02162,-76.39873 19.38579,-119.97413 15.20563,-46.12807 59.93305,-129.28708 73.41975,-136.50494 6.02157,-3.22265 16.76524,-3.2712 22.68598,-0.10253 6.27124,3.35626 9.64719,13.41381 11.54111,34.38277 5.24302,58.04993 33.4643,110.85612 72.7009,136.03418 40.55899,26.02661 105.40145,31.693 158.47904,13.84896 9.77778,-3.28716 36.06349,-14.51413 58.4127,-24.9488 22.34921,-10.43469 48.63492,-20.94311 58.4127,-23.35207 22.37095,-5.51157 61.93425,-5.55779 87.43246,-0.1021 18.87043,4.03754 22.87165,3.2098 23.00485,-4.75898 0.0203,-1.27957 5.41826,-10.99386 11.99309,-21.58731 20.6875,-33.33201 45.33529,-55.61826 71.86319,-64.97784 6.17077,-2.17718 36.4077,-9.81509 67.19317,-16.97314 64.35159,-14.96272 90.94119,-16.95581 115.65609,-8.66934 122.0138,40.90909 232.9841,231.25527 277.7599,476.43885 9.9858,54.68023 12.8327,88.63195 12.7776,152.38096 -0.1046,121.14566 -17.7546,201.45326 -56.933,259.04756 -14.0352,20.6324 -38.0221,42.2405 -56.4783,50.8772 -19.4192,9.0873 -134.7562,35.472 -155.061,35.472 -29.7604,0 -72.9954,-16.3599 -100.3247,-37.9625 l -13.262,-10.483 -19.6361,6.1888 c -62.56919,19.7202 -157.25829,33.5325 -272.33446,39.7253 -54.07126,2.9099 -204.30149,2.7473 -260.31746,-0.2818 z m 304.76191,-45.2472 c 54.74992,-4.5476 102.22766,-10.3697 138.4127,-16.9734 39.52719,-7.2137 73.6508,-15.9065 73.6508,-18.7621 0,-1.0834 -5.03271,-8.101 -11.1838,-15.5948 -29.49778,-35.9369 -72.22883,-111.7055 -94.33814,-167.2759 -15.46925,-38.8811 -32.9169,-93.0043 -43.35662,-134.494 l -9.71718,-38.61808 -12.76561,1.39639 c -30.04252,3.28627 -324.4165,4.66763 -386.09899,1.81181 -114.90016,-5.31972 -194.39191,-14.31584 -249.42166,-28.22715 -16.46888,-4.16328 -30.22914,-7.57267 -30.57835,-7.57643 -0.3492,-0.003 -0.63492,8.59289 -0.63492,19.10364 0,22.36275 -3.05121,20.0571 41.90477,31.6651 50.11668,12.94052 122.28002,23.15776 214.5067,30.37087 24.27789,1.89879 33.15085,3.59088 38.09524,7.26484 11.30458,8.39989 10.07017,28.29241 -2.14774,34.61054 -6.11611,3.16276 -13.35919,3.3602 -46.31241,1.26237 -81.5414,-5.19098 -178.10054,-20.98552 -241.60211,-39.51975 -4.19248,-1.22367 -4.44445,6.19442 -4.44445,130.84905 v 132.1463 l 8.03392,9.1501 c 15.29956,17.4252 59.28432,34.394 121.4899,46.8694 55.81007,11.1927 111.5985,17.4466 213.33334,23.9147 29.56896,1.88 251.80054,-0.7675 283.17461,-3.3735 z M 492.96511,978.51456 c -13.02237,-7.46832 -15.49259,-23.57557 -5.19479,-33.87335 11.36691,-11.36693 29.55002,-6.42253 35.18537,9.56767 2.51617,7.13958 -3.34692,19.63556 -11.09219,23.64079 -8.57371,4.43365 -12.10994,4.55807 -18.89839,0.66489 z m 648.69379,303.06334 c 5.7265,-1.6006 4.9051,-2.6461 -11.8215,-15.046 -112.9805,-83.7559 -206.78034,-298.2867 -229.5252,-524.94987 -4.55439,-45.38649 -3.83642,-130.55548 1.43441,-170.15874 7.54106,-56.66082 23.16391,-109.27721 42.46192,-143.00782 4.24297,-7.41621 7.24186,-13.95666 6.66418,-14.53434 -0.57768,-0.57768 -5.55749,0.16134 -11.06626,1.64229 -46.47439,12.49389 -81.54268,71.08402 -97.87193,163.51892 -6.84879,38.76887 -9.39456,126.09824 -5.05044,173.24844 12.99241,141.01641 48.69443,264.41272 106.99353,369.79982 28.50669,51.5314 47.1036,77.2523 78.42479,108.467 29.5823,29.4818 47.7734,41.9593 72.4332,49.683 10.9878,3.4415 36.7662,4.1762 46.9233,1.3373 z m 115.8634,-29.4636 c 38.0981,-18.6396 69.6246,-78.8402 81.1601,-154.9767 2.1163,-13.9683 5.1932,-45.7845 6.8375,-70.7027 6.2312,-94.43145 -6.6645,-195.62204 -39.0525,-306.44017 -37.3833,-127.91005 -100.0411,-239.94419 -164.0634,-293.35088 -9.3818,-7.82626 -26.6257,-18.99407 -38.3197,-24.81735 -19.3267,-9.6242 -23.0249,-10.59046 -40.6349,-10.61715 -25.1365,-0.0381 -39.0405,6.22714 -58.931,26.5547 -25.35617,25.91334 -46.83391,77.03971 -56.83675,135.29622 -26.66662,155.30614 13.77049,380.1352 96.71415,537.72813 38.462,73.0777 92.8796,135.8287 137.4078,158.4503 25.4088,12.9084 53.0656,13.9587 75.7187,2.8756 z m -69.2053,-97.9593 c -16.3264,-5.0151 -21.552,-25.0164 -9.6463,-36.9221 5.983,-5.983 7.3882,-6.2455 24.9277,-4.6561 22.8252,2.0683 31.7099,-1.704 40.8819,-17.3581 12.5693,-21.4524 15.0527,-36.7695 15.2693,-94.1773 0.1978,-52.44115 0.2541,-52.96557 6.1953,-57.77774 8.4892,-6.87591 20.9912,-6.27629 28.1562,1.35045 7.603,8.09303 11.402,41.91503 9.2432,82.29139 -1.8535,34.6689 -7.1494,59.8963 -16.8761,80.3908 -9.8077,20.6653 -19.6093,31.7912 -35.7432,40.5724 -11.2382,6.1165 -17.0666,7.506 -33.9189,8.0862 -11.1919,0.3853 -24.012,-0.4247 -28.4891,-1.7999 z M 1017.3792,679.14919 c -3.5087,-1.29209 -8.0015,-4.91617 -9.984,-8.05346 -7.48198,-11.84033 -7.50867,-97.79117 -0.04,-129.59147 8.1676,-34.77727 27.7176,-62.63619 51.3828,-73.22096 16.913,-7.56475 49.4104,-8.43829 61.8885,-1.66362 14.2071,7.71338 16.0838,24.87383 3.9186,35.83056 -4.4526,4.01028 -7.8462,4.44498 -23.7835,3.04655 -16.0723,-1.41023 -19.7108,-0.92907 -26.867,3.55304 -15.9631,9.99802 -24.5698,31.44935 -28.592,71.26235 -1.3481,13.34413 -1.5811,36.25344 -0.5214,51.26035 2.408,34.10105 0.5883,41.89625 -10.9009,46.69679 -4.7786,1.99659 -9.0107,3.53993 -9.4048,3.42966 -0.394,-0.11022 -3.5872,-1.25768 -7.096,-2.54979 z M 759.0373,847.22033 c 23.41907,-1.10852 43.24617,-2.68152 44.06022,-3.49557 1.32442,-1.32442 -6.06667,-63.05056 -7.75142,-64.73529 -0.37945,-0.37945 -19.99898,0.69519 -43.59893,2.38812 -56.6992,4.0673 -257.63597,4.05452 -322.27412,-0.0205 -70.81471,-4.46438 -155.48528,-12.3618 -184.12699,-17.17392 -22.2294,-3.7348 -74.00749,-16.08782 -84.44445,-20.14644 -4.10743,-1.59725 -4.44444,1.05313 -4.44444,34.95244 v 36.68073 l 15.5415,4.32092 c 43.6683,12.14088 147.06585,23.76993 247.31565,27.81547 42.10626,1.69917 300.87521,1.25285 339.72298,-0.58596 z M 705.02861,740.34302 c 31.42858,-1.34263 63.57547,-3.13778 71.43757,-3.98923 l 14.29468,-1.54809 1.3539,-61.37374 c 1.37491,-62.32526 4.45567,-90.22941 14.87155,-134.699 4.31667,-18.42967 4.66255,-22.91162 1.89986,-24.61905 -5.66891,-3.50357 -34.85735,-5.66194 -56.60506,-4.18573 -24.71901,1.67792 -38.4702,6.30939 -87.39523,29.43505 -20.52467,9.70151 -45.17046,20.03231 -54.76841,22.95731 -56.98298,17.36579 -129.64775,10.71665 -178.52798,-16.33613 -22.59032,-12.50263 -57.54682,-47.5665 -68.95248,-69.16429 -4.61036,-8.73016 -9.02205,-15.87302 -9.80376,-15.87302 -2.68338,0 2.26832,44.45064 7.02814,63.09067 7.59294,29.73488 18.98004,50.13727 39.48533,70.74629 15.46863,15.54689 22.59051,20.39713 47.61283,32.42595 24.61839,11.83465 29.72102,15.27777 31.24567,21.08369 2.76683,10.53623 1.17589,16.50237 -6.15589,23.085 -9.43104,8.46735 -21.411,6.23975 -53.44932,-9.93862 -43.62047,-22.02697 -75.26681,-56.2324 -91.99982,-99.43944 -8.36581,-21.60173 -15.22238,-52.77146 -15.22238,-69.20043 0,-6.34461 -0.97638,-11.53565 -2.16972,-11.53565 -2.10437,0 -10.17309,24.98352 -15.58418,48.25397 -4.67672,20.11228 -6.11411,74.05971 -2.65261,99.55673 3.83824,28.27202 12.36125,58.84485 23.09984,82.86123 l 7.87271,17.60696 14.39952,1.51604 c 96.17105,10.12521 255.22995,14.13034 368.68524,9.28353 z M 270.11638,719.35981 c -0.64347,-1.74603 -3.76432,-11.17461 -6.93524,-20.95238 -3.17091,-9.77778 -6.63581,-18.7326 -7.69978,-19.89961 -3.98636,-4.37237 -90.47907,16.50392 -87.61011,21.14601 1.54521,2.50021 35.57511,12.34905 61.71146,17.86036 26.85672,5.66322 42.19801,6.36176 40.53367,1.84562 z"
       id="path4329" />
  </g>
</svg>
